<?xml version="1.0" encoding="utf-8"?>
<!-- Generator: Adobe Illustrator 16.0.0, SVG Export Plug-In . SVG Version: 6.00 Build 0) -->
<!DOCTYPE svg PUBLIC "-//W3C//DTD SVG 1.1//EN" "http://www.w3.org/Graphics/SVG/1.1/DTD/svg11.dtd">
<svg version="1.1" id="Layer_1" xmlns="http://www.w3.org/2000/svg" xmlns:xlink="http://www.w3.org/1999/xlink" x="0px" y="0px"
width="16px" height="16px" viewBox="0 0 16 16" enable-background="new 0 0 16 16" xml:space="preserve">
<g>
<path fill="#ffffffcc" d="M13.798,3.448c-0.603-0.405-1.644-0.565-2.447-0.369c-1.313-1.312-3.522-2.686-5.093-2.686
c-0.275,0-0.483,0.088-0.62,0.261c-0.111,0.142-0.151,0.32-0.113,0.5C5.572,1.39,5.72,1.564,5.989,1.781
C5.77,1.74,5.556,1.719,5.343,1.719c-0.762,0-1.211,0.23-1.333,0.682c-0.16,0.592,1.077,1.103,2.79,1.809l0.308,0.127
c0.291,0.12,1.079,0.559,1.6,0.85c0.123,0.068,0.23,0.128,0.313,0.173C8.86,5.518,8.592,5.72,8.191,5.828
C7.732,5.951,7.211,5.98,6.66,6.011C6.527,6.019,6.39,6.024,6.25,6.03C5.055,6.08,3.7,6.136,2.711,7.287
c-0.987,1.148-1.13,2.642-1.065,3.734c-0.353,0.046-1.094,0.21-1.46,0.783c-0.216,0.34-0.22,0.816-0.012,1.416
c0.266,0.766,1.057,1.173,1.526,1.173c0.282,0,0.554-0.111,0.791-0.229c-0.109,0.3-0.208,0.678,0.003,1.068
c0.159,0.296,0.511,0.401,2.176,0.401c0.416,0,0.88-0.007,1.362-0.017l1.18-0.013c0.507,0,1.019,0.016,1.452,0.03
c0.422,0.012,0.822,0.021,1.181,0.021c0.731,0,1.723,0,1.847-0.74c0.043,0.061,0.076,0.111,0.1,0.148
c0.251,0.428,1.294,0.588,1.934,0.592h0.023c0.922,0,1.43-0.3,1.43-0.846c0-0.997-0.904-1.137-1.393-1.213
c-0.256-0.036-0.326-0.06-0.34-0.066c-0.176-0.143-0.864-1.757-0.69-2.627c0.034-0.171,0.139-0.393,0.25-0.627l0.014-0.031
c0.005-0.009,0.383-0.811,0.447-1.213c0.385-0.018,1.93-0.162,2.381-1.395C16.418,6.072,14.59,3.979,13.798,3.448z M15.031,6.683
c-0.061-0.008-0.114-0.014-0.159-0.014c-0.222,0-0.243,0.163-0.245,0.208C14.598,7.281,14.8,7.495,14.92,7.606
c-0.309,0.204-0.86,0.296-1.306,0.296c-0.754,0-1.48-0.124-2.16-0.367c-0.186-0.067-0.51-0.228-0.824-0.382
c-0.559-0.276-0.908-0.445-1.06-0.445c-0.024,0-0.045,0.003-0.064,0.011L9.412,6.77l-0.006,0.08
c-0.021,0.271,0.99,1.024,1.304,1.192c0.071,0.039,0.155,0.087,0.25,0.142c0.439,0.254,1.093,0.632,1.747,0.741
c-0.041,0.205-0.214,0.646-0.383,1.004c-0.138,0.286-0.266,0.557-0.32,0.825c-0.225,1.121,0.52,3.022,0.964,3.376
c0.184,0.147,0.436,0.186,0.702,0.226c0.354,0.056,0.664,0.237,0.689,0.287c-0.001,0.001-0.068,0.085-0.534,0.109
c-0.406,0.024-1.275-0.091-1.598-0.439c-0.219-0.241-0.487-0.673-0.827-1.217c-0.121-0.196-0.252-0.406-0.392-0.625
c-0.159-0.251-0.304-0.572-0.452-0.903c-0.246-0.549-0.501-1.116-0.904-1.522C9.071,9.46,8.492,9.163,7.931,9.163
c-0.438,0-1.114,0.283-1.251,0.601c-0.051,0.119-0.029,0.24,0.06,0.335c0.167,0.177,0.642,0.191,0.736,0.192
c1.029,0.009,1.989,0.175,2.042,1.318c0.038,0.805-1.472,1.381-2.21,1.661c-0.469,0.18-0.684,0.261-0.684,0.562
c0,0.41,0.262,0.423,1.245,0.466c0.804,0.037,2.239,0.103,2.749,0.404c-0.243,0.062-0.962,0.162-3.041,0.162l-0.394-0.001
c-2.212-0.013-3.55-0.105-3.976-0.276c-0.034-0.089-0.025-0.112,0.051-0.308c0.025-0.065,0.057-0.123,0.088-0.181
c0.111-0.207,0.425-0.571,0.079-0.869c-0.502-0.433-0.94-1.323-0.94-1.323S2.094,12.297,2.3,13.167
c-0.104,0.101-0.25,0.203-0.58,0.203c-0.484,0-0.759-0.333-0.854-0.476c-0.206-0.312-0.108-0.558-0.032-0.678
c0.175-0.271,0.668-0.455,1.02-0.455c0.029,0,0.057,0.002,0.084,0.004c0.024,0.002,0.117-0.008,0.211-0.019l-0.001-0.001
c0.212-0.066,0.291-0.271,0.302-0.387l0.001-0.018l-0.003-0.017c-0.117-0.685-0.038-2.167,1-3.376
C4.34,6.91,5.538,6.843,6.702,6.778l0.214-0.012c0.519-0.027,1.01-0.053,1.48-0.2c1.04-0.322,1.486-1.003,1.522-1.355
c0.015-0.141-0.03-0.252-0.124-0.304C9.583,4.789,7.847,3.842,7.412,3.645C6.922,3.424,6.463,3.25,6.094,3.11
C5.598,2.922,5.085,2.728,5.056,2.599C5.05,2.574,5.085,2.534,5.105,2.514c0.053-0.062,0.17-0.094,0.338-0.094
c1.098,0,3.815,1.194,4.463,1.768c0.012,0.012,0.406,0.229,0.578,0.044s-0.137-0.503-0.147-0.512
c-0.088-0.094-0.239-0.184-0.907-0.557C7.036,1.817,6.182,1.408,6.494,1.064s3.688,1.718,4.521,2.592
c0.207,0.237,0.431,0.196,0.437,0.192c0.249-0.084,0.418-0.096,0.697-0.096c0.417,0,0.892,0.127,1.208,0.325
c0.706,0.44,1.628,1.671,1.806,2.619C15.116,6.693,15.072,6.688,15.031,6.683z M10.95,13.948c-0.519-0.237-1.307-0.322-2.335-0.382
c0.546-0.237,1.086-0.527,1.381-1.013C10.191,12.938,10.573,13.457,10.95,13.948z"/>
<circle fill="#ffffffcc" cx="13.176" cy="6.094" r="0.445"/>
</g>
</svg>