<?xml version="1.0" encoding="utf-8"?>
<!DOCTYPE svg PUBLIC "-//W3C//DTD SVG 1.1//EN" "http://www.w3.org/Graphics/SVG/1.1/DTD/svg11.dtd">
<svg version="1.1" xmlns="http://www.w3.org/2000/svg" xmlns:xlink="http://www.w3.org/1999/xlink" x="0px" y="0px"
	 width="32px" height="32px" viewBox="0 0 32 32" enable-background="new 0 0 32 32" xml:space="preserve">
<circle cx="13.031" cy="19.031" r="1.344"/>
<circle cx="19.406" cy="19.031" r="1.344"/>
<path d="M20.326,23.587c-0.005,0.02-0.502,1.913-2.047,1.913c-0.433,0-0.771-0.128-1.032-0.392c-0.526-0.528-0.607-1.436-0.62-1.707
	c0.545-0.506,1.313-1.312,1.313-1.848c0-0.828-0.825-0.688-1.844-0.688c-1.018,0-1.844-0.141-1.844,0.688
	c0,0.554,0.818,1.394,1.365,1.895c-0.02,0.313-0.118,1.156-0.614,1.657c-0.263,0.266-0.602,0.395-1.035,0.395
	c-1.533,0-2.027-1.836-2.047-1.914c0,0-0.005-0.462-0.547-0.378s-0.422,0.625-0.422,0.625c0.028,0.108,0.702,2.667,3.016,2.667
	c0.705,0,1.292-0.232,1.746-0.69c0.168-0.171,0.297-0.363,0.41-0.562c0.112,0.198,0.24,0.391,0.409,0.562
	c0.454,0.458,1.042,0.69,1.746,0.69c2.314,0,2.988-2.559,3.016-2.667c0,0,0.08-0.5-0.295-0.625S20.326,23.587,20.326,23.587z"/>
<path d="M22.511,12.623c0.778-1.147,1.422-2.717,1.769-4.509c0.759-3.932-0.191-7.421-2.124-7.794s-4.114,2.512-4.873,6.443
	c-0.261,1.352-0.315,2.648-0.201,3.787c-0.316-0.028-0.634-0.048-0.957-0.048c-0.563,0-1.112,0.057-1.652,0.141
	c0.126-1.161,0.076-2.49-0.192-3.879c-0.759-3.931-2.941-6.816-4.873-6.443S6.523,4.182,7.282,8.114
	c0.381,1.972,1.12,3.68,2.006,4.846c-2.389,1.974-3.914,4.957-3.914,8.29c0,5.928,4.822,10.75,10.75,10.75s10.75-4.822,10.75-10.75
	C26.874,17.716,25.151,14.584,22.511,12.623z M16.124,30c-4.825,0-8.75-3.925-8.75-8.75c0-2.823,1.35-5.331,3.432-6.932
	c0.486-0.902-4.308-9.871-1.247-10.89s3.483,8.697,4.391,9.357c0.697-0.179,1.422-0.285,2.174-0.285c0.485,0,0.958,0.05,1.423,0.126
	c0.911-0.335,1.488-10.262,4.328-9.377s-1.375,9.958-0.739,10.838c2.257,1.584,3.738,4.201,3.738,7.162
	C24.874,26.075,20.949,30,16.124,30z"/>
</svg>
