<?xml version="1.0" encoding="utf-8"?>
<!-- Generator: Adobe Illustrator 16.0.0, SVG Export Plug-In . SVG Version: 6.00 Build 0)  -->
<!DOCTYPE svg PUBLIC "-//W3C//DTD SVG 1.1//EN" "http://www.w3.org/Graphics/SVG/1.1/DTD/svg11.dtd">
<svg version="1.1" id="Layer_1" xmlns="http://www.w3.org/2000/svg" xmlns:xlink="http://www.w3.org/1999/xlink" x="0px" y="0px"
	 width="16px" height="16px" viewBox="0 0 16 16" enable-background="new 0 0 16 16" xml:space="preserve">
<path d="M13.898,3.498c-0.588-0.395-1.615-0.571-2.461-0.34c-1.297-1.317-3.572-2.75-5.149-2.75c-0.24,0-0.418,0.073-0.532,0.218
	c-0.09,0.115-0.123,0.257-0.092,0.408c0.063,0.313,0.344,0.517,0.959,0.957C6.101,1.808,5.686,1.759,5.357,1.759
	c-0.449,0-1.094,0.071-1.237,0.602c-0.143,0.53,1.394,1.125,3.083,1.824c0.43,0.178,1.879,1.011,2.102,1.124
	C9.167,5.473,5.656,4.313,2.771,7.386c-1.134,1.208-1.114,2.939-1.047,3.833c-0.454,0.038-1.177,0.227-1.514,0.754
	c-0.163,0.256-0.23,0.67,0,1.334c0.248,0.715,0.986,1.11,1.436,1.11c0.38,0,0.76-0.228,1.037-0.369
	c-0.018,0.054-0.04,0.108-0.064,0.171c-0.122,0.315-0.275,0.709-0.054,1.118c0.129,0.24,0.451,0.343,2.106,0.343
	c0.423,0,0.895-0.007,1.386-0.017L7.26,15.65c0.506,0,1.008,0.015,1.483,0.031c0.428,0.012,0.834,0.021,1.198,0.021
	c0.969,0,1.726-0.069,1.767-0.732c0.009-0.164-0.16-0.345-0.278-0.478c-0.477-0.53-1.65-0.617-3.294-0.696
	c0.774-0.322,1.679-0.656,1.968-1.43c0.197,0.669,1.681,2.377,1.928,2.795c0.208,0.354,1.154,0.537,1.863,0.541
	s1.354-0.172,1.354-0.736c0-0.908-0.819-1.035-1.312-1.111c-0.143-0.021-0.356-0.054-0.406-0.094
	c-0.231-0.187-0.93-1.889-0.748-2.798c0.039-0.198,0.156-0.44,0.279-0.7c0.153-0.32,0.473-1.082,0.451-1.305
	c0.121,0.006,1.939-0.016,2.424-1.341C16.467,6.168,14.77,4.083,13.898,3.498z M13.176,6.539c-0.246,0-0.445-0.199-0.445-0.445
	c0-0.246,0.199-0.445,0.445-0.445s0.445,0.199,0.445,0.445C13.621,6.34,13.422,6.539,13.176,6.539z"/>
</svg>
