<?xml version="1.0" encoding="utf-8"?>
<!-- Generator: Adobe Illustrator 16.0.0, SVG Export Plug-In . SVG Version: 6.00 Build 0)  -->
<!DOCTYPE svg PUBLIC "-//W3C//DTD SVG 1.1//EN" "http://www.w3.org/Graphics/SVG/1.1/DTD/svg11.dtd">
<svg version="1.1" id="Layer_1" xmlns="http://www.w3.org/2000/svg" xmlns:xlink="http://www.w3.org/1999/xlink" x="0px" y="0px"
	 width="16px" height="16px" viewBox="0 0 16 16" enable-background="new 0 0 16 16" xml:space="preserve">
<path fill="#ffffffcc" d="M12.528,8.544c0.051-0.253,0.461-0.761,0.486-1.715c0.049-1.863-0.829-4.593-4.9-4.573c-4.159,0.021-5.05,2.771-4.957,4.638
	c0.046,0.898,0.584,1.413,0.596,1.657c0.039,0.759-1.003,1.429-0.488,2.223c0.515,0.793,1.223,0.192,1.687,0.659
	c0.465,0.463,0.35,1.398,0.628,1.715c0.279,0.313,0.987,0.456,2.534,0.571c1.548,0.115,2.229-0.394,2.556-0.571
	c0.326-0.179,0.121-1.453,0.686-1.774c0.565-0.322,1.216,0.087,1.659-0.627C13.458,10.031,12.379,9.294,12.528,8.544z M6.804,10.131
	c-0.687,0.343-1.373,0.515-1.93,0.074c-0.558-0.439-0.75-1.34-0.043-1.94C5.54,7.663,7.083,8.093,7.362,8.479
	C7.64,8.864,7.49,9.789,6.804,10.131z M8.969,11.995c-0.45,0.236-0.454-0.32-0.847-0.214c-0.391,0.107-0.461,0.45-0.783,0.214
	c-0.321-0.235,0.135-1.801,0.775-1.78C8.755,10.237,9.417,11.76,8.969,11.995z M11.242,10.237c-0.556,0.438-1.115,0.215-1.802-0.129
	c-0.686-0.343-0.88-1.223-0.602-1.607c0.278-0.386,1.888-0.816,2.596-0.214C12.142,8.887,11.799,9.799,11.242,10.237z"/>
<g>
	<path fill="#ffffffcc" d="M4.333,2.927C4.047,2.641,3.866,2.46,3.836,2.43C3.602,2.195,4.328,0.281,2.984,0.141S1.792,1.21,1.641,1.359
		S0,1.109,0.297,2.625C0.552,3.927,2.24,3.182,2.615,3.416c0.057,0.035,0.31,0.279,0.696,0.666c0.166-0.287,0.358-0.554,0.581-0.79
		C4.023,3.153,4.185,3.047,4.333,2.927z"/>
	<path fill="#ffffffcc" d="M13.006,4.349c0.284-0.259,0.473-0.424,0.521-0.453c0.392-0.234,2.438,0.098,2.47-1.434s-1.359-0.672-1.5-0.859
		s0.594-1.313-0.703-1.469S12.524,2.225,12.29,2.49c-0.027,0.031-0.179,0.186-0.421,0.432c0.115,0.095,0.245,0.175,0.35,0.282
		C12.567,3.562,12.816,3.954,13.006,4.349z"/>
	<path fill="#ffffffcc" d="M4.243,11.727c-0.242-0.001-0.595-0.009-0.934-0.219c-0.385,0.386-0.629,0.63-0.665,0.665
		c-0.234,0.234-2.148-0.492-2.289,0.852s1.07,1.191,1.219,1.344c0.149,0.151-0.25,1.641,1.266,1.344
		c1.302-0.255,0.557-1.943,0.791-2.318c0.048-0.077,0.494-0.529,1.162-1.188c-0.044-0.172-0.102-0.329-0.193-0.419
		C4.549,11.736,4.471,11.729,4.243,11.727z"/>
	<path fill="#ffffffcc" d="M13.519,12.075c-0.036-0.032-0.247-0.239-0.578-0.567c-0.306,0.177-0.625,0.196-0.867,0.211
		c-0.195,0.011-0.35,0.02-0.47,0.089c-0.104,0.059-0.172,0.488-0.204,0.701c0.411,0.443,0.677,0.74,0.714,0.803
		c0.234,0.392-0.098,2.438,1.434,2.47s0.672-1.359,0.859-1.5s1.313,0.594,1.469-0.703S13.784,12.31,13.519,12.075z"/>
</g>
</svg>
