<?xml version="1.0" encoding="utf-8"?>
<!DOCTYPE svg PUBLIC "-//W3C//DTD SVG 1.1//EN" "http://www.w3.org/Graphics/SVG/1.1/DTD/svg11.dtd">
<svg version="1.1"
	 xmlns="http://www.w3.org/2000/svg" xmlns:xlink="http://www.w3.org/1999/xlink" x="0px" y="0px" width="32px" height="32px"
	 viewBox="0 0 32 32" enable-background="new 0 0 32 32" xml:space="preserve">
<metadata>
	<sfw>
		<slices></slices>
		<sliceSourceBounds  width="25.449" height="31.514" y="0.611" x="3.062" bottomLeftOrigin="true"></sliceSourceBounds>
	</sfw>
</metadata>
<g>
	<polygon fill="#ffffffcc" points="7.55,18.227 7.55,18.227 7.549,18.226 	"/>
	<path fill="#ffffffcc" d="M28.939,16.874c-0.31-2.051-1.556-1.362-1.556-1.362s4.191-15.34-11.098-14.345C6.042,1.833,4.25,0.375,4.25,0.375
		S3.792,3.833,6,6.083C5.083,6.542,3.958,5.875,3.958,5.875S3.917,7.542,5.396,8.43c-0.684,3.651-0.2,6.818-0.2,6.818
		s-1.251-0.152-1.559,1.766c-0.422,2.625,1.046,3.795,1.559,4.641c0.427,0.703,0.58,1.717,0.765,2.828H5.91
		c0.032,0.264,0.063,0.527,0.094,0.791l0.042,0.001c0.096,0.701,0.283,1.385,0.62,1.978c0.063,0.183,0.125,0.366,0.185,0.549
		c0.007,0.001,0.013,0.002,0.021,0.002c1.063,2.215,3.415,4.086,9.419,4.086c5.443,0,7.922-1.795,9.15-3.896
		c0.253-0.751,0.586-1.482,0.848-2.232c0.057-0.177,0.11-0.354,0.165-0.532c0.071-0.26,0.139-0.521,0.172-0.79
		c0-0.002,0.001-0.003,0.001-0.004c0.228-1.275,0.33-2.338,0.759-2.779C27.745,21.227,29.366,19.688,28.939,16.874z M12.25,6.583
		c-1.332,1.02-2.167,3.5-2.167,3.5S15.458,6.333,20.35,7c2.982,0.611,4.381,1.896,5.478,4.64c0.19,0.251,0.018,1.784-0.212,3.302
		c-0.008,0-0.014-0.004-0.021-0.004H6.892c-0.139-0.976-0.232-2.029-0.184-2.953C7.208,9.161,8.873,7.238,12.25,6.583z
		 M21.898,17.902c-0.154,0.274-0.395,0.557-0.673,0.743c-0.073-0.001-0.148,0.007-0.228,0.048c-0.354,0.181-0.773,0.2-1.175,0.156
		c-0.044-0.007-0.09-0.012-0.134-0.021c-0.011-0.001-0.021-0.003-0.032-0.005c-0.358-0.076-0.689-0.223-0.938-0.518
		c-0.138-0.163-0.239-0.384-0.275-0.609c0.549-0.161,1.098-0.325,1.65-0.473c0.237-0.063,0.486-0.135,0.737-0.203
		c0.373-0.073,0.751-0.138,1.127-0.174c0.064,0.049,0.111,0.113,0.156,0.18C22.095,17.326,22.06,17.615,21.898,17.902z
		 M13.509,17.246c-0.221,1.338-1.686,1.751-2.621,1.082c-0.496-0.29-0.89-0.681-0.951-1.297c-0.008-0.083,0.016-0.156,0.052-0.224
		C11.127,17.108,12.337,17.07,13.509,17.246z M19.772,29.013c-0.053,0.064-0.116,0.128-0.188,0.188
		c-0.213,0.402-0.556,0.696-1.115,0.674c-0.192-0.008-0.357-0.043-0.502-0.099c-0.149-0.003-0.294-0.019-0.421-0.063
		c-0.042-0.118-0.078-0.237-0.116-0.355c-0.183-0.232-0.314-0.517-0.424-0.826c-0.318-0.346-0.833-0.315-1.256-0.281
		c-0.589,0.048-0.905,1.082-1.358,1.414c-0.203,0.168-0.459,0.271-0.802,0.265c-0.49-0.01-0.78-0.354-0.954-0.781
		c-0.083-0.161-0.133-0.34-0.154-0.532c-0.05-0.25-0.076-0.496-0.086-0.697c-0.045-0.915-0.085-2.129,0.318-2.983
		c0.28-0.593,0.693-1.005,1.354-1.12c0.448-0.078,0.766,0.086,1.093,0.289c0.687,0.246,1.387,0.106,2.115-0.303
		c0.106,0.048,0.23,0.045,0.36-0.031c0.024,0.007,0.051,0.013,0.076,0.02c0.182-0.048,0.363-0.046,0.547-0.009
		c0.013,0.007,0.025,0.019,0.038,0.026c0.353,0.066,0.7,0.238,0.974,0.509c0.353,0.348,0.518,0.765,0.586,1.207
		c0.04,0.063,0.081,0.126,0.111,0.196c0.068,0.535,0.056,1.101,0.062,1.478C20.037,27.761,20.156,28.54,19.772,29.013z M25.7,21.075
		c-0.004,0.048-0.009,0.093-0.014,0.138c-0.186,0.16-0.346,0.321-0.501,0.535c-0.589,0.809-1.372,1.215-2.294,1.552
		c-1.726,0.632-3.188,0.113-4.671-0.794c-0.111-0.068-0.218-0.078-0.316-0.063c-0.135-0.051-0.283-0.063-0.406,0.031
		c-0.805,0.613-1.659,1.391-2.801,0.141c-0.161-0.177-0.407-0.171-0.606-0.078c-0.659,0.305-1.34,0.617-2.026,0.905
		c-1.268,0.288-2.443,0.075-3.526-0.791c-0.558-0.446-0.971-1.187-1.579-1.577c-0.002-0.018-0.003-0.032-0.005-0.049
		c-1.015-0.225-2.278-2.625-1.733-4.16c0.506-1.104,1.12-0.674,1.59-0.019c0.007,0.052,0.013,0.103,0.038,0.155
		c0.172,0.372,0.414,0.799,0.7,1.223l0,0.002c0.65,0.964,1.549,1.91,2.536,2.131c0.907,0.202,1.553,0.181,2.457-0.023
		c1.949-0.44,3.074-1.029,5.224-0.229c2.906,1.08,5.651,0.337,7.299-1.962c-0.004,0.018-0.007,0.035-0.007,0.035
		s0.019-0.039,0.044-0.093c0.229-0.326,0.437-0.682,0.619-1.068c0.55-0.782,1.304-1.399,1.714,0.27
		C27.707,19.145,26.469,20.557,25.7,21.075z"/>
</g>
</svg>
