<?xml version="1.0" encoding="utf-8"?>
<!DOCTYPE svg PUBLIC "-//W3C//DTD SVG 1.1//EN" "http://www.w3.org/Graphics/SVG/1.1/DTD/svg11.dtd">
<svg version="1.1" 
	 xmlns="http://www.w3.org/2000/svg" xmlns:xlink="http://www.w3.org/1999/xlink" x="0px" y="0px" width="32px" height="32px"
	 viewBox="0 0 32 32" enable-background="new 0 0 32 32" xml:space="preserve">
<metadata>
	<sfw>
		<slices></slices>
		<sliceSourceBounds  width="25.422" height="31.764" y="-31.889" x="3.578" bottomLeftOrigin="true"></sliceSourceBounds>
	</sfw>
</metadata>
<path d="M28.94,16.874c-0.31-2.051-1.556-1.362-1.556-1.362S31.611,0.125,16.29,0.125c-15.321,0-11.094,15.123-11.094,15.123
	s-1.251-0.152-1.559,1.766c-0.422,2.625,1.559,4.64,1.559,4.64S9.489,31.889,16.29,31.889c6.802,0,11.095-10.235,11.095-10.235
	S29.366,19.688,28.94,16.874z M25.7,21.075c-0.634,3.587-4.642,9.212-9.399,9.212c-4.756,0-8.751-5.692-9.346-9.262
	c-1.015-0.223-2.278-2.625-1.733-4.16c0.966-2.105,2.328,1.362,2.328,1.362s-0.977-3.638-0.842-6.241
	c0.07-1.335,0.817-2.197,1.337-2.575c1.535-1.115,7.875,4.655,7.875,4.655s0.382-2.65-0.817-4.309
	c2.204-0.346,6.884,4.458,6.884,4.458s-0.321-3.492-3.144-6.167c0.371-0.148,4.407,0.198,6.983,3.591
	c0.396,0.521-0.768,6.538-0.768,6.538s1.683-3.715,2.377-0.892C27.707,19.144,26.469,20.556,25.7,21.075z"/>
</svg>
