<?xml version="1.0" encoding="utf-8"?>
<!DOCTYPE svg PUBLIC "-//W3C//DTD SVG 1.1//EN" "http://www.w3.org/Graphics/SVG/1.1/DTD/svg11.dtd">
<svg version="1.1" 
	 xmlns="http://www.w3.org/2000/svg" xmlns:xlink="http://www.w3.org/1999/xlink" x="0px" y="0px" width="32px" height="32px"
	 viewBox="0 0 32 32" enable-background="new 0 0 32 32" xml:space="preserve">
<metadata>
	<sfw>
		<slices></slices>
		<sliceSourceBounds  width="29.62" height="31.514" y="0.611" x="0.645" bottomLeftOrigin="true"></sliceSourceBounds>
	</sfw>
</metadata>
<g>
	<path d="M12.446,14.619c-2.946-0.744-3.662-1.272-3.862-0.268c-0.142,0.708,0.813,1.243,1.983,1.618
		c-0.125,0.664,0.394,1.2,1.164,1.288c0.552,0.063,1.054-0.19,1.313-0.594c1.219,0.495,2.096,1.209,2.125,0.391
		C15.189,16.438,14.131,15.045,12.446,14.619z"/>
	<path d="M22.601,14.02c-0.82-2.698-2.893-5.145-2.893-5.145s1.23,2.813,1.852,5.438c-0.341,0.096-0.712,0.197-1.144,0.306
		c-1.686,0.426-2.743,1.818-2.722,2.435c0.026,0.749,0.764,0.21,1.822-0.267c0.696,0.998,2.004,0.454,2.216-0.653
		c1.41-0.375,2.71-0.962,2.546-1.782C24.143,13.669,23.749,13.701,22.601,14.02z"/>
	<path d="M30.542,24.481h-3.924c0.233-1.298,0.332-2.379,0.767-2.827c0.36-0.428,1.981-1.967,1.555-4.78
		c-0.31-2.051-1.556-1.362-1.556-1.362s4.191-15.34-11.098-14.345C6.042,1.833,4.25,0.375,4.25,0.375S3.792,3.833,6,6.083
		C5.083,6.542,3.958,5.875,3.958,5.875S3.917,7.542,5.396,8.43c-0.684,3.651-0.2,6.818-0.2,6.818s-1.251-0.152-1.559,1.766
		c-0.422,2.625,1.046,3.795,1.559,4.641c0.427,0.703,0.58,1.716,0.765,2.827H1.145c0,0,0.563,1.958,3.48,3
		c0.405,0.145,1.194,0.249,2.246,0.321c1.063,2.215,3.415,4.086,9.419,4.086c5.727,0,8.177-1.986,9.337-4.227
		c2.675-0.097,4.498-0.181,4.498-0.181s0.541-0.272,0.625-1.439S30.542,24.481,30.542,24.481z M5.958,27.084
		c-2.083-0.208-3.042-1.834-3.042-1.834l10.012,0.076c0.049,0.125,0.147,0.232,0.313,0.281c2.055,0.602,4.121,0.723,6.172,0.312
		l0.279,1.237C19.693,27.156,8.042,27.292,5.958,27.084z M16.301,30.287c-4.181,0-6.358-0.852-7.569-2.396
		c3.073,0.099,7.297,0.044,11.186-0.054c0,0.287,0.584,0.461,0.833,0.454c0.252-0.007,0.709-0.25,0.669-0.494
		c0.895-0.025,1.759-0.053,2.573-0.079C22.757,29.332,20.523,30.287,16.301,30.287z M25.7,21.075
		c-0.104,1.224-0.21,2.365-0.41,3.406h-4.026c-2.725,1.417-5.723,1.103-8.574,0.127c-0.174-0.042-0.347-0.078-0.521-0.127H7.398
		c-0.19-1.038-0.313-2.183-0.443-3.456c-1.015-0.224-2.278-2.625-1.733-4.16c0.966-2.105,2.328,1.361,2.328,1.361
		s-0.977-3.638-0.842-6.241c0.5-2.824,2.165-4.747,5.542-5.402c-1.332,1.02-2.167,3.5-2.167,3.5S15.458,6.333,20.349,7
		c2.983,0.611,4.382,1.896,5.478,4.64c0.396,0.521-0.768,6.538-0.768,6.538s1.683-3.715,2.377-0.892
		C27.707,19.145,26.469,20.557,25.7,21.075z"/>
	<path d="M21.958,22.042c0,0,0.842-2.412,0.977-4.911c-0.263,0.263-0.578,0.48-0.923,0.642
		C22.115,19.999,21.958,22.042,21.958,22.042z"/>
</g>
</svg>
