<?xml version="1.0" encoding="utf-8"?>
<!-- Generator: Adobe Illustrator 16.0.0, SVG Export Plug-In . SVG Version: 6.00 Build 0)  -->
<!DOCTYPE svg PUBLIC "-//W3C//DTD SVG 1.1//EN" "http://www.w3.org/Graphics/SVG/1.1/DTD/svg11.dtd">
<svg version="1.1" id="Layer_1" xmlns="http://www.w3.org/2000/svg" xmlns:xlink="http://www.w3.org/1999/xlink" x="0px" y="0px"
	 width="16px" height="16px" viewBox="0 0 16 16" enable-background="new 0 0 16 16" xml:space="preserve">
<g>
	<path d="M0.21,13.306c0.248,0.715,0.986,1.111,1.436,1.111c0.38,0,0.76-0.228,1.037-0.369c-0.018,0.053-0.04,0.108-0.064,0.171
		c-0.122,0.315-0.275,0.709-0.054,1.118c0.129,0.24,0.451,0.343,2.106,0.343c0.423,0,0.895-0.007,1.386-0.017l1.203-0.012
		c0.506,0,1.008,0.014,1.483,0.03c0.428,0.012,0.834,0.022,1.198,0.022c0.969,0,1.726-0.069,1.767-0.733
		c0.009-0.164-0.16-0.344-0.278-0.477c-0.477-0.53-1.651-0.617-3.294-0.696c0.774-0.323,1.679-0.656,1.967-1.43
		c0.198,0.669,1.681,2.377,1.928,2.795c0.208,0.354,1.155,0.537,1.864,0.541s1.354-0.172,1.354-0.736
		c0-0.909-0.82-1.036-1.312-1.111c-0.142-0.021-0.356-0.054-0.406-0.094c-0.231-0.187-0.93-1.889-0.748-2.798
		c0.039-0.198,0.157-0.44,0.279-0.7c0.154-0.321,0.473-1.082,0.452-1.305c0.121,0.006,1.939-0.016,2.424-1.341
		c0.529-1.45-1.169-3.535-2.04-4.12c-0.588-0.395-1.615-0.571-2.46-0.34c-1.297-1.317-3.573-2.75-5.15-2.75
		c-0.24,0-0.418,0.073-0.532,0.218c-0.09,0.115-0.123,0.257-0.092,0.408c0.063,0.313,0.344,0.517,0.959,0.957
		C6.101,1.808,5.686,1.759,5.357,1.759c-0.449,0-1.094,0.071-1.237,0.602c-0.143,0.53,1.394,1.125,3.083,1.824
		c0.43,0.178,1.879,1.011,2.101,1.124c-0.137,0.164-0.458,0.48-1.014,0.63C7.81,6.068,7.272,6.098,6.705,6.13
		C5.446,6.2,3.861,6.117,2.771,7.386c-1.08,1.257-1.114,2.939-1.047,3.833c-0.454,0.038-1.177,0.227-1.514,0.754
		C0.047,12.229-0.02,12.642,0.21,13.306z M0.658,12.259c0.229-0.356,0.865-0.555,1.241-0.517c0.353,0.034,0.386-0.303,0.386-0.303
		c-0.123-0.718-0.041-2.275,1.047-3.542c0.944-1.099,2.193-1.168,3.401-1.236C7.331,6.627,7.9,6.616,8.429,6.451
		c1.279-0.397,1.63-1.335,1.401-1.462C9.6,4.861,7.851,3.907,7.412,3.709C5.81,2.985,4.609,2.793,5.019,2.361
		c0.558-0.645,4.207,1.124,5,1.826c0,0,0.173,0.181,0.389-0.002c0.216-0.183-0.057-0.428-0.057-0.428
		c-0.075-0.082-0.236-0.176-0.894-0.544c-2.125-1.195-3.226-1.96-3.271-2.274c0.516-0.5,3.956,1.635,4.942,2.669
		c0.153,0.175,0.309,0.107,0.309,0.107c0.267-0.09,0.553-0.136,0.852-0.136c0.496,0,0.989,0.158,1.297,0.35
		c0.757,0.473,1.803,1.856,1.918,2.902c-0.311,0.013-0.561-0.112-0.566,0.065c-0.042,0.563,0.416,0.695,0.343,0.76
		c-0.347,0.309-1.071,0.4-1.5,0.4c-1.006,0-1.761-0.209-2.242-0.381c-0.48-0.172-1.74-0.89-1.901-0.832
		c-0.163,0.059,0.765,0.862,1.245,1.12c0.422,0.227,1.283,0.804,2.106,0.901c0.027,0.197-0.264,0.878-0.403,1.17
		c-0.138,0.289-0.27,0.563-0.322,0.826c-0.216,1.078,0.514,2.979,0.937,3.316c0.161,0.129,0.392,0.164,0.657,0.204
		c0.586,0.091,1.394,0.586,0.144,0.652c-0.421,0.021-1.357-0.089-1.724-0.489c-0.315-0.344-0.713-1.041-1.257-1.893
		c-0.163-0.257-0.307-0.576-0.458-0.914c-0.25-0.557-0.507-1.133-0.906-1.536C9.09,9.63,8.53,9.341,7.992,9.341
		c-0.527,0-1.405,0.442-1.123,0.741c0.098,0.104,0.412,0.155,0.66,0.157c1.057,0.009,2.145,0.19,2.203,1.462
		c0.043,0.912-1.555,1.52-2.324,1.812c-0.466,0.178-0.623,0.237-0.623,0.458c0,0.299,0.175,0.306,1.141,0.35
		c0.983,0.044,2.633,0.119,3.017,0.548c0.033,0.035-0.006,0.298-3.714,0.277c-3.708-0.021-4.02-0.263-4.146-0.311
		c-0.069-0.171-0.075-0.178,0.032-0.453c0.114-0.296,0.356-0.478,0.17-0.981C3.1,12.898,2.779,12.905,2.534,12.6
		c-0.226-0.279-0.416-0.527-0.416-0.527c-0.139,0.845,0.311,1.223,0.311,1.223c-0.124,0.125-0.276,0.33-0.763,0.33
		c-0.435,0-0.776-0.243-0.974-0.541C0.483,12.77,0.523,12.471,0.658,12.259z"/>
	<circle cx="13.176" cy="6.094" r="0.445"/>
</g>
</svg>
