<?xml version="1.0" encoding="utf-8"?>
<!-- Generator: Adobe Illustrator 16.0.0, SVG Export Plug-In . SVG Version: 6.00 Build 0)  -->
<!DOCTYPE svg PUBLIC "-//W3C//DTD SVG 1.1//EN" "http://www.w3.org/Graphics/SVG/1.1/DTD/svg11.dtd">
<svg version="1.1" id="Layer_1" xmlns="http://www.w3.org/2000/svg" xmlns:xlink="http://www.w3.org/1999/xlink" x="0px" y="0px"
	 width="16px" height="16px" viewBox="0 0 16 16" enable-background="new 0 0 16 16" xml:space="preserve">
<path fill="#ffffffcc" d="M15.551,7.778h-0.977c-0.137-3.432-2.899-6.183-6.336-6.301V0.464c0-0.136-0.11-0.246-0.246-0.246s-0.246,0.11-0.246,0.246
	v1.015c-3.42,0.137-6.162,2.878-6.298,6.298H0.433c-0.136,0-0.246,0.11-0.246,0.246s0.11,0.246,0.246,0.246h1.013
	c0.118,3.437,2.869,6.2,6.301,6.336v0.977c0,0.137,0.11,0.246,0.246,0.246s0.246-0.109,0.246-0.246v-0.976
	c3.45-0.118,6.219-2.888,6.337-6.337h0.976c0.137,0,0.246-0.11,0.246-0.246S15.688,7.778,15.551,7.778z M13.256,7.778h-1.983
	c-0.13-1.614-1.415-2.889-3.035-3V2.793C10.952,2.911,13.12,5.068,13.256,7.778z M9.504,8.269h1.121
	c-0.111,1.271-1.116,2.276-2.387,2.387V9.535c0-0.136-0.11-0.245-0.246-0.245S7.747,9.399,7.747,9.535v1.116
	c-1.254-0.126-2.239-1.123-2.349-2.382H6.48c0.136,0,0.246-0.11,0.246-0.246S6.616,7.778,6.48,7.778H5.401
	c0.126-1.242,1.103-2.219,2.345-2.345v1.079c0,0.136,0.11,0.246,0.246,0.246s0.246-0.11,0.246-0.246V5.429
	c1.259,0.109,2.256,1.094,2.382,2.349H9.504c-0.136,0-0.245,0.11-0.245,0.246S9.368,8.269,9.504,8.269z M7.747,2.796v1.984
	C6.146,4.911,4.879,6.177,4.75,7.778H2.765C2.902,5.081,5.049,2.933,7.747,2.796z M2.762,8.269h1.984
	c0.112,1.62,1.386,2.905,3,3.035v1.983C5.037,13.151,2.879,10.983,2.762,8.269z M8.238,13.292v-1.984
	c1.632-0.113,2.925-1.406,3.039-3.039h1.984C13.143,10.996,10.965,13.174,8.238,13.292z"/>
</svg>
