<?xml version="1.0" encoding="utf-8"?>
<!-- Generator: Adobe Illustrator 16.0.0, SVG Export Plug-In . SVG Version: 6.00 Build 0)  -->
<!DOCTYPE svg PUBLIC "-//W3C//DTD SVG 1.1//EN" "http://www.w3.org/Graphics/SVG/1.1/DTD/svg11.dtd">
<svg version="1.1" id="Layer_1" xmlns="http://www.w3.org/2000/svg" xmlns:xlink="http://www.w3.org/1999/xlink" x="0px" y="0px"
	 width="16px" height="16px" viewBox="0 0 16 16" enable-background="new 0 0 16 16" xml:space="preserve">
<path fill="#ffffffcc" d="M2.9,10.08l0.756,0.758L0.25,14.245l1.59,1.588l3.406-3.407l0.567,0.569l0.757-0.758L3.656,9.324L2.9,10.08z M2.057,15.105
	c-0.102,0.103-0.267,0.103-0.369,0l-0.667-0.668c-0.102-0.103-0.102-0.266,0-0.368c0.102-0.104,0.267-0.104,0.37,0l0.667,0.667
	C2.159,14.837,2.159,15.003,2.057,15.105z M2.965,14.197c-0.102,0.101-0.267,0.101-0.369,0l-0.667-0.668
	c-0.102-0.103-0.102-0.266,0-0.368c0.102-0.104,0.267-0.104,0.37,0l0.667,0.667C3.067,13.929,3.067,14.094,2.965,14.197z
	 M3.873,13.289c-0.102,0.101-0.267,0.101-0.369,0l-0.667-0.668c-0.102-0.103-0.102-0.269,0-0.368c0.102-0.104,0.267-0.104,0.369,0
	l0.667,0.667C3.976,13.021,3.976,13.186,3.873,13.289z M3.746,11.345c0.102-0.104,0.267-0.104,0.369,0l0.667,0.667
	c0.102,0.101,0.102,0.266,0,0.369c-0.103,0.101-0.268,0.101-0.37,0l-0.667-0.668C3.644,11.61,3.644,11.444,3.746,11.345z"/>
<g>
	<path fill="#ffffffcc" d="M1.5,0.04l9.548,9.548l-1.59,1.591c0,0-2.394-2.093-5.839-5.159C0.176,2.954,1.5,0.04,1.5,0.04z"/>
	<path fill="#ffffffcc" d="M12.296,9.324l-2.914,2.913l0.758,0.758l0.566-0.569l3.406,3.407l1.59-1.588l-3.406-3.407l0.756-0.758L12.296,9.324z
		 M13.896,14.736l0.666-0.667c0.104-0.104,0.268-0.104,0.369,0c0.102,0.103,0.102,0.266,0,0.368l-0.666,0.668
		c-0.102,0.103-0.268,0.103-0.369,0S13.794,14.837,13.896,14.736z M12.987,13.828l0.666-0.667c0.104-0.104,0.268-0.104,0.369,0
		c0.102,0.103,0.102,0.266,0,0.368l-0.666,0.668c-0.104,0.101-0.268,0.101-0.369,0C12.884,14.094,12.884,13.929,12.987,13.828z
		 M12.079,12.92l0.666-0.667c0.104-0.104,0.268-0.104,0.369,0c0.102,0.1,0.102,0.266,0,0.368l-0.666,0.668
		c-0.104,0.101-0.268,0.101-0.369,0C11.976,13.186,11.976,13.021,12.079,12.92z M12.206,11.713l-0.666,0.668
		c-0.104,0.101-0.268,0.101-0.371,0c-0.102-0.104-0.102-0.269,0-0.369l0.668-0.667c0.104-0.104,0.268-0.104,0.369,0
		C12.308,11.444,12.308,11.61,12.206,11.713z"/>
</g>
<g>
	<path fill="#ffffffcc" d="M14.452,0.04L8.33,6.163l1.807,1.807c0.667-0.591,1.399-1.241,2.196-1.95C15.776,2.954,14.452,0.04,14.452,0.04z"/>
	<path fill="#ffffffcc" d="M5.837,8.656L4.905,9.588l1.589,1.591c0,0,0.408-0.356,1.104-0.969C7.109,9.779,6.515,9.256,5.837,8.656z"/>
</g>
</svg>
